<svg width="32" height="32" viewBox="0 0 32 32" fill="none" xmlns="http://www.w3.org/2000/svg">
<g clip-path="url(#clip0_1_32)">
<path d="M24.22 10.8188H24.2751L24.6607 11.5073L24.936 11.9755L25.3491 12.6915L25.7347 13.3524L26.9739 15.5004L27.3595 16.1614L28.5987 18.3094L28.9842 18.9703L29.2872 19.4935L29.2596 19.5762L28.4885 20.0168L25.6245 21.6691L24.8534 22.1097L24.1925 22.4953L23.4214 22.9359L19.1254 25.4144L18.3543 25.855L17.6934 26.2405L16.9223 26.6812L12.6262 29.1596L12.461 29.2423L12.2132 28.8292L10.9739 26.6812L10.5884 26.0202L9.76221 24.5882L9.51436 24.1751L9.59697 24.0925L10.313 23.6794L10.4507 23.5968H10.5333L10.8087 24.0925L11.1942 24.7534L12.0204 26.1855L12.4059 26.8464L12.819 27.5624L12.8741 27.645L13.0393 27.5899L13.7002 27.2044L15.8483 25.9651L16.6194 25.5245L17.2803 25.139L18.0514 24.6984L22.3474 22.2199L23.1185 21.7793L23.7794 21.3937L24.5505 20.9531L27.4145 19.3008L27.6899 19.1355V19.0529L27.2493 18.2818L26.8638 17.6209L25.6245 15.4729L25.239 14.812L23.9997 12.6639L23.6142 12.003L23.2837 11.4247L23.3113 11.3421L23.9447 10.9841L24.22 10.8188Z" fill="#5D88DA"/>
<path d="M19.5385 2.75L19.6211 2.77754L20.0617 3.54862L20.4748 4.26463L20.8603 4.92556L22.0996 7.07358L22.4851 7.73451L22.4576 7.81713L21.9619 8.09251L21.5488 8.34036H21.4937L21.0531 7.56928L20.6675 6.90835L19.4283 4.76033L19.1805 4.34725V4.29217L18.492 4.67771L17.8311 5.06325L15.683 6.3025L14.912 6.74312L14.251 7.12866L13.4799 7.56928L9.1839 10.0478L8.41282 10.4884L7.75189 10.8739L6.9808 11.3145L4.83278 12.5538L4.36462 12.8292H4.30955L4.61247 13.3799L4.99801 14.0409L6.23726 16.1889L6.6228 16.8498L7.86204 18.9978L8.24758 19.6588L8.66066 20.3748L8.74328 20.54L8.49543 20.7052L7.80696 21.0908L7.75189 21.1183L6.09956 18.2543L5.71402 17.5934L4.47478 15.4454L4.08924 14.7844L2.84999 12.6364L2.73984 12.4161L3.42831 12.0306L4.08924 11.645L4.86032 11.2044L8.44035 9.13898L9.21144 8.69836L9.87237 8.31282L10.6435 7.8722L14.9395 5.39372L15.7106 4.9531L16.3715 4.56756L17.1426 4.12694L19.2906 2.88769L19.5385 2.75Z" fill="#5D88DA"/>
<path d="M30.0307 4.78784H30.0582V6.1097L29.2872 6.55032L27.1391 7.78956L26.3681 8.23018L25.7071 8.61572L24.936 9.05634L19.924 11.9479L19.1529 12.3885L18.492 12.7741L18.3543 12.8291L18.5195 13.1596L18.7949 13.6278L19.6211 15.0598L20.0066 15.7207L21.2459 17.8687L21.6314 18.5297L22.4576 19.9617L22.788 20.54L22.7605 20.6226L22.072 21.0082L21.8517 21.1458H21.7966L21.5212 20.6501L21.1357 19.9892L19.8965 17.8412L19.5109 17.1803L18.2717 15.0322L17.8861 14.3713L17.06 12.9393L16.7846 12.4711V12.4161L17.418 12.0581L18.0789 11.6725L18.85 11.2319L23.146 8.75342L23.9171 8.3128L24.578 7.92726L25.3491 7.48664L29.6452 5.00815L30.0307 4.78784Z" fill="#5D88DA"/>
<path d="M10.2854 10.9014L10.3956 11.0391L10.7811 11.7275L11.0565 12.1957L11.4696 12.9117L11.8552 13.5726L13.0944 15.7206L13.4799 16.3816L14.7192 18.5296L15.2975 19.521L15.1598 19.6311L14.5264 19.9891L13.8655 20.3747L13.0944 20.8153L9.51436 22.8807L8.74328 23.3213L8.08235 23.7069L7.31126 24.1475L3.01522 26.626L2.24414 27.0666L2.02383 27.2043H1.96875V25.91L2.2166 25.7447L2.90507 25.3592L3.37323 25.0838L5.52125 23.8446L6.29233 23.4039L6.95326 23.0184L7.72434 22.5778L12.0204 20.0993L12.7915 19.6587L13.4524 19.2731L13.7002 19.1354L13.6452 18.9978L13.3698 18.5021L12.9842 17.8411L11.745 15.6931L11.3595 15.0322L10.1202 12.8842L9.73467 12.2232L9.32159 11.5072V11.4521L10.0376 11.0391L10.2854 10.9014Z" fill="#5D88DA"/>
<path d="M5.52125 2.75H5.60386L5.9894 3.43847L6.37495 4.0994L7.20111 5.53141L7.58665 6.19234L8.41281 7.62435L8.52297 7.81713L8.49543 7.89974L7.77942 8.31282L7.58665 8.42298H7.53157L7.17357 7.78959L6.78803 7.12866L5.54878 4.98064L5.16324 4.31971L5.02555 4.37478L4.25446 4.8154L2.10644 6.05465L1.96875 6.10972V4.8154L2.2166 4.65017L2.84999 4.29217L3.51092 3.90663L4.282 3.46601L4.99801 3.05293L5.52125 2.75Z" fill="white"/>
<path d="M24.523 23.6243H24.578L25.8173 25.7723L26.2028 26.4332L26.6159 27.1492L26.8913 27.6174V27.6725L27.1667 27.5348L27.8276 27.1492L28.5987 26.7086L30.0307 25.8824H30.0582V27.2043L29.2872 27.6449L27.1391 28.8842L26.5333 29.2422L26.4231 29.132L24.7708 26.268L24.3853 25.6071L23.9722 24.891L23.5866 24.2301L23.6142 24.1475L24.2476 23.7895L24.523 23.6243Z" fill="white"/>
</g>
<defs>
<clipPath id="clip0_1_32">
<rect width="32" height="32" fill="white"/>
</clipPath>
</defs>
</svg>
